<svg xmlns="http://www.w3.org/2000/svg" viewBox="0 0 56 58" width="56" height="58">
	<style>
		tspan { white-space:pre }
		.shp0 { opacity: 0.502;fill: #f5c506 } 
		.shp1 { fill: #f5c506 } 
	</style>
	<g id="footer">
		<g id="logo+_footer">
			<path id="Shape 8 copy 4" class="shp0" d="M2.41 13.5L14.63 13.04L14.55 0.81L19.77 5.8L19.85 18.03L7.63 18.49L2.41 13.5ZM10.33 21.07L22.55 20.61L22.47 8.38L27.69 13.37L27.77 25.6L15.55 26.06L10.33 21.07ZM41.45 50.83L41.37 38.6L53.59 38.14L48.37 33.15L36.15 33.61L36.23 45.84L41.45 50.83ZM33.53 43.26L33.45 31.03L45.67 30.56L40.45 25.58L28.23 26.04L28.31 38.27L33.53 43.26ZM40.32 0.23L40.78 12.45L53.01 12.37L48.02 17.59L35.79 17.67L35.33 5.45L40.32 0.23ZM32.75 8.15L33.21 20.37L45.44 20.29L40.45 25.5L28.22 25.59L27.76 13.37L32.75 8.15ZM2.99 39.27L15.22 39.18L15.68 51.4L20.67 46.19L20.21 33.97L7.98 34.05L2.99 39.27ZM10.56 31.35L22.79 31.27L23.25 43.49L28.24 38.27L27.78 26.05L15.55 26.13L10.56 31.35Z" />
			<path id="Shape 8 copy 3" class="shp1" d="M0.99 38.78L9.5 30L0.99 21.22L8.21 21.22L16.72 30L8.21 38.78L0.99 38.78ZM11.95 38.78L20.46 30L11.95 21.22L19.17 21.22L27.68 30L19.17 38.78L11.95 38.78ZM55.01 38.78L46.49 30L55.01 21.22L47.79 21.22L39.28 30L47.79 38.78L55.01 38.78ZM44.05 38.78L35.54 30L44.05 21.22L36.83 21.22L28.32 30L36.83 38.78L44.05 38.78ZM19.22 2.99L28 11.5L36.78 2.99L36.78 10.21L28 18.72L19.22 10.21L19.22 2.99ZM19.22 13.95L28 22.46L36.78 13.95L36.78 21.17L28 29.68L19.22 21.17L19.22 13.95ZM19.22 57L28 48.49L36.78 57L36.78 49.79L28 41.28L19.22 49.79L19.22 57ZM19.22 46.05L28 37.54L36.78 46.05L36.78 38.83L28 30.32L19.22 38.83L19.22 46.05Z" />
		</g>
	</g>
</svg>